<svg width="210" height="30" viewBox="0 0 210 30" fill="none" xmlns="http://www.w3.org/2000/svg">
  <rect width="210" height="30" fill="black"/>
  <path d="M12.5 8.2C8.4 8.2 5 11.4 5 15.4C5 19.4 8.4 22.6 12.5 22.6C15.2 22.6 17.6 21.2 18.9 19.1L16.3 17.6C15.5 18.8 14.1 19.6 12.5 19.6C10.1 19.6 8.1 17.8 8.1 15.4C8.1 13 10.1 11.2 12.5 11.2C14.1 11.2 15.5 12 16.3 13.2L18.9 11.7C17.6 9.6 15.2 8.2 12.5 8.2Z" fill="white"/>
  <path d="M25 8.6H21.9V22.2H25V16.8H31.1V22.2H34.2V8.6H31.1V13.9H25V8.6Z" fill="white"/>
  <path d="M42.4 8.6L36.6 22.2H40L41.2 19.3H46.9L48.1 22.2H51.5L45.7 8.6H42.4ZM42.3 16.6L44 12.4L45.8 16.6H42.3Z" fill="white"/>
  <text x="58" y="21" fill="white" font-family="Arial, Helvetica, sans-serif" font-size="20" font-weight="700">COACHTECH</text>
</svg>
